  0
SECTION
  2
HEADER
  9
$ACADVER
  1
AC1014
  9
$HANDSEED
  5
FFFF
  9
$MEASUREMENT
 70
     1
  0
ENDSEC
  0
SECTION
  2
TABLES
  0
TABLE
  2
VPORT
  5
8
330
0
100
AcDbSymbolTable
 70
     4
  0
VPORT
  5
2E
330
8
100
AcDbSymbolTableRecord
100
AcDbViewportTableRecord
  2
*ACTIVE
 70
     0
 10
0.0
 20
0.0
 11
1.0
 21
1.0
 12
210.0
 22
148.5
 13
0.0
 23
0.0
 14
10.0
 24
10.0
 15
10.0
 25
10.0
 16
0.0
 26
0.0
 36
1.0
 17
0.0
 27
0.0
 37
0.0
 40
341.0
 41
1.24
 42
50.0
 43
0.0
 44
0.0
 50
0.0
 51
0.0
 71
     0
 72
   100
 73
     1
 74
     3
 75
     0
 76
     0
 77
     0
 78
     0
  0
ENDTAB
  0
TABLE
  2
LTYPE
  5
5
330
0
100
AcDbSymbolTable
 70
     1
  0
LTYPE
  5
14
330
5
100
AcDbSymbolTableRecord
100
AcDbLinetypeTableRecord
  2
BYBLOCK
 70
     0
  3

 72
    65
 73
     0
 40
0.0
  0
LTYPE
  5
15
330
5
100
AcDbSymbolTableRecord
100
AcDbLinetypeTableRecord
  2
BYLAYER
 70
     0
  3

 72
    65
 73
     0
 40
0.0
  0
LTYPE
  5
16
330
5
100
AcDbSymbolTableRecord
100
AcDbLinetypeTableRecord
  2
CONTINUOUS
 70
     0
  3
Solid line
 72
    65
 73
     0
 40
0.0
  0
ENDTAB
  0
TABLE
  2
LAYER
  5
2
100
AcDbSymbolTable
 70
2
  0
LAYER
  5
50
100
AcDbSymbolTableRecord
100
AcDbLayerTableRecord
  2
0
 70
0
  6
CONTINUOUS
  0
LAYER
  5
51
100
AcDbSymbolTableRecord
100
AcDbLayerTableRecord
  2
Calque_1
 70
0
  6
CONTINUOUS
  0
ENDTAB
  0
TABLE
  2
STYLE
  5
3
330
0
100
AcDbSymbolTable
 70
     1
  0
STYLE
  5
11
330
3
100
AcDbSymbolTableRecord
100
AcDbTextStyleTableRecord
  2
STANDARD
 70
     0
 40
0.0
 41
1.0
 50
0.0
 71
     0
 42
2.5
  3
txt
  4

  0
ENDTAB
  0
TABLE
  2
VIEW
  5
6
330
0
100
AcDbSymbolTable
 70
     0
  0
ENDTAB
  0
TABLE
  2
UCS
  5
7
330
0
100
AcDbSymbolTable
 70
     0
  0
ENDTAB
  0
TABLE
  2
APPID
  5
9
330
0
100
AcDbSymbolTable
 70
     2
  0
APPID
  5
12
330
9
100
AcDbSymbolTableRecord
100
AcDbRegAppTableRecord
  2
ACAD
 70
     0
  0
ENDTAB
  0
TABLE
  2
DIMSTYLE
  5
A
330
0
100
AcDbSymbolTable
 70
     1
  0
DIMSTYLE
105
27
330
A
100
AcDbSymbolTableRecord
100
AcDbDimStyleTableRecord
  2
ISO-25
 70
     0
  3

  4

  5

  6

  7

 40
1.0
 41
2.5
 42
0.625
 43
3.75
 44
1.25
 45
0.0
 46
0.0
 47
0.0
 48
0.0
140
2.5
141
2.5
142
0.0
143
0.03937007874016
144
1.0
145
0.0
146
1.0
147
0.625
 71
     0
 72
     0
 73
     0
 74
     0
 75
     0
 76
     0
 77
     1
 78
     8
170
     0
171
     3
172
     1
173
     0
174
     0
175
     0
176
     0
177
     0
178
     0
270
     2
271
     2
272
     2
273
     2
274
     3
340
11
275
     0
280
     0
281
     0
282
     0
283
     0
284
     8
285
     0
286
     0
287
     3
288
     0
  0
ENDTAB
  0
TABLE
  2
BLOCK_RECORD
  5
1
330
0
100
AcDbSymbolTable
 70
     1
  0
BLOCK_RECORD
  5
1F
330
1
100
AcDbSymbolTableRecord
100
AcDbBlockTableRecord
  2
*MODEL_SPACE
  0
BLOCK_RECORD
  5
1B
330
1
100
AcDbSymbolTableRecord
100
AcDbBlockTableRecord
  2
*PAPER_SPACE
  0
ENDTAB
  0
ENDSEC
  0
SECTION
  2
BLOCKS
  0
BLOCK
  5
20
330
1F
100
AcDbEntity
  8
0
100
AcDbBlockBegin
  2
*MODEL_SPACE
 70
     0
 10
0.0
 20
0.0
 30
0.0
  3
*MODEL_SPACE
  1

  0
ENDBLK
  5
21
330
1F
100
AcDbEntity
  8
0
100
AcDbBlockEnd
  0
BLOCK
  5
1C
330
1B
100
AcDbEntity
 67
     1
  8
0
100
AcDbBlockBegin
  2
*PAPER_SPACE
  1

  0
ENDBLK
  5
1D
330
1B
100
AcDbEntity
 67
     1
  8
0
100
AcDbBlockEnd
  0
ENDSEC
  0
SECTION
  2
ENTITIES
  0
LWPOLYLINE
  5
100
100
AcDbEntity
  8
Calque_1
 62
7
100
AcDbPolyline
 90
4
 70
1
 10
10.100000
 20
286.900000
 30
0.0
 10
100.100000
 20
286.900000
 30
0.0
 10
100.100000
 20
221.900000
 30
0.0
 10
10.100000
 20
221.900000
 30
0.0
  0
SPLINE
  5
101
100
AcDbEntity
  8
Calque_1
 62
7
100
AcDbSpline
 70
8
 71
3
 72
8
 73
4
 74
0
 40
0
 40
0
 40
0
 40
0
 40
1
 40
1
 40
1
 40
1
 10
19.490000
 20
279.450000
 30
0.0
 10
18.606344
 20
279.450000
 30
0.0
 10
17.890000
 20
278.733656
 30
0.0
 10
17.890000
 20
277.850000
 30
0.0
  0
SPLINE
  5
102
100
AcDbEntity
  8
Calque_1
 62
7
100
AcDbSpline
 70
8
 71
3
 72
8
 73
4
 74
0
 40
0
 40
0
 40
0
 40
0
 40
1
 40
1
 40
1
 40
1
 10
17.890000
 20
277.850000
 30
0.0
 10
17.890000
 20
276.966344
 30
0.0
 10
18.606344
 20
276.250000
 30
0.0
 10
19.490000
 20
276.250000
 30
0.0
  0
SPLINE
  5
103
100
AcDbEntity
  8
Calque_1
 62
7
100
AcDbSpline
 70
8
 71
3
 72
8
 73
4
 74
0
 40
0
 40
0
 40
0
 40
0
 40
1
 40
1
 40
1
 40
1
 10
19.490000
 20
276.250000
 30
0.0
 10
20.373656
 20
276.250000
 30
0.0
 10
21.090000
 20
276.966344
 30
0.0
 10
21.090000
 20
277.850000
 30
0.0
  0
SPLINE
  5
104
100
AcDbEntity
  8
Calque_1
 62
7
100
AcDbSpline
 70
8
 71
3
 72
8
 73
4
 74
0
 40
0
 40
0
 40
0
 40
0
 40
1
 40
1
 40
1
 40
1
 10
21.090000
 20
277.850000
 30
0.0
 10
21.090000
 20
278.274346
 30
0.0
 10
20.921429
 20
278.681313
 30
0.0
 10
20.621371
 20
278.981371
 30
0.0
  0
SPLINE
  5
105
100
AcDbEntity
  8
Calque_1
 62
7
100
AcDbSpline
 70
8
 71
3
 72
8
 73
4
 74
0
 40
0
 40
0
 40
0
 40
0
 40
1
 40
1
 40
1
 40
1
 10
20.621371
 20
278.981371
 30
0.0
 10
20.321313
 20
279.281429
 30
0.0
 10
19.914346
 20
279.450000
 30
0.0
 10
19.490000
 20
279.450000
 30
0.0
  0
LWPOLYLINE
  5
106
100
AcDbEntity
  8
Calque_1
 62
7
100
AcDbPolyline
 90
8
 70
1
 10
17.050794
 20
264.449169
 30
0.0
 10
17.048494
 20
238.548647
 30
0.0
 10
83.951523
 20
238.548646
 30
0.0
 10
83.951523
 20
264.452169
 30
0.0
 10
65.050003
 20
264.452169
 30
0.0
 10
65.050003
 20
280.451692
 30
0.0
 10
46.949207
 20
280.449392
 30
0.0
 10
46.949207
 20
264.449169
 30
0.0
  0
SPLINE
  5
107
100
AcDbEntity
  8
Calque_1
 62
7
100
AcDbSpline
 70
8
 71
3
 72
8
 73
4
 74
0
 40
0
 40
0
 40
0
 40
0
 40
1
 40
1
 40
1
 40
1
 10
90.559998
 20
279.464213
 30
0.0
 10
89.927333
 20
279.464213
 30
0.0
 10
89.356964
 20
279.083105
 30
0.0
 10
89.114853
 20
278.498599
 30
0.0
  0
SPLINE
  5
108
100
AcDbEntity
  8
Calque_1
 62
7
100
AcDbSpline
 70
8
 71
3
 72
8
 73
4
 74
0
 40
0
 40
0
 40
0
 40
0
 40
1
 40
1
 40
1
 40
1
 10
89.114853
 20
278.498599
 30
0.0
 10
88.872743
 20
277.914092
 30
0.0
 10
89.006570
 20
277.241296
 30
0.0
 10
89.453932
 20
276.793934
 30
0.0
  0
SPLINE
  5
109
100
AcDbEntity
  8
Calque_1
 62
7
100
AcDbSpline
 70
8
 71
3
 72
8
 73
4
 74
0
 40
0
 40
0
 40
0
 40
0
 40
1
 40
1
 40
1
 40
1
 10
89.453932
 20
276.793934
 30
0.0
 10
89.901294
 20
276.346572
 30
0.0
 10
90.574090
 20
276.212745
 30
0.0
 10
91.158597
 20
276.454855
 30
0.0
  0
SPLINE
  5
10a
100
AcDbEntity
  8
Calque_1
 62
7
100
AcDbSpline
 70
8
 71
3
 72
8
 73
4
 74
0
 40
0
 40
0
 40
0
 40
0
 40
1
 40
1
 40
1
 40
1
 10
91.158597
 20
276.454855
 30
0.0
 10
91.743103
 20
276.696966
 30
0.0
 10
92.124211
 20
277.267335
 30
0.0
 10
92.124211
 20
277.900000
 30
0.0
  0
SPLINE
  5
10b
100
AcDbEntity
  8
Calque_1
 62
7
100
AcDbSpline
 70
8
 71
3
 72
8
 73
4
 74
0
 40
0
 40
0
 40
0
 40
0
 40
1
 40
1
 40
1
 40
1
 10
92.124211
 20
277.900000
 30
0.0
 10
92.124211
 20
278.314855
 30
0.0
 10
91.959411
 20
278.712719
 30
0.0
 10
91.666064
 20
279.006066
 30
0.0
  0
SPLINE
  5
10c
100
AcDbEntity
  8
Calque_1
 62
7
100
AcDbSpline
 70
8
 71
3
 72
8
 73
4
 74
0
 40
0
 40
0
 40
0
 40
0
 40
1
 40
1
 40
1
 40
1
 10
91.666064
 20
279.006066
 30
0.0
 10
91.372717
 20
279.299413
 30
0.0
 10
90.974853
 20
279.464213
 30
0.0
 10
90.559998
 20
279.464213
 30
0.0
  0
LWPOLYLINE
  5
10d
100
AcDbEntity
  8
Calque_1
 62
7
100
AcDbPolyline
 90
1
 70
1
 10
19.490000
 20
279.450000
 30
0.0
  0
LWPOLYLINE
  5
10e
100
AcDbEntity
  8
Calque_1
 62
7
100
AcDbPolyline
 90
1
 70
1
 10
90.559998
 20
279.464213
 30
0.0
  0
LWPOLYLINE
  5
10f
100
AcDbEntity
  8
Calque_1
 62
7
100
AcDbPolyline
 90
4
 70
1
 10
14.043478
 20
234.456520
 30
0.0
 10
17.956522
 20
234.456520
 30
0.0
 10
17.956522
 20
224.543477
 30
0.0
 10
14.043478
 20
224.543477
 30
0.0
  0
LWPOLYLINE
  5
110
100
AcDbEntity
  8
Calque_1
 62
7
100
AcDbPolyline
 90
4
 70
1
 10
92.043480
 20
234.456520
 30
0.0
 10
95.956524
 20
234.456520
 30
0.0
 10
95.956524
 20
224.543476
 30
0.0
 10
92.043480
 20
224.543476
 30
0.0
  0
SPLINE
  5
111
100
AcDbEntity
  8
Calque_1
 62
7
100
AcDbSpline
 70
8
 71
3
 72
8
 73
4
 74
0
 40
0
 40
0
 40
0
 40
0
 40
1
 40
1
 40
1
 40
1
 10
19.439995
 20
209.500002
 30
0.0
 10
18.792855
 20
209.500002
 30
0.0
 10
18.209437
 20
209.110175
 30
0.0
 10
17.961788
 20
208.512295
 30
0.0
  0
SPLINE
  5
112
100
AcDbEntity
  8
Calque_1
 62
7
100
AcDbSpline
 70
8
 71
3
 72
8
 73
4
 74
0
 40
0
 40
0
 40
0
 40
0
 40
1
 40
1
 40
1
 40
1
 10
17.961788
 20
208.512295
 30
0.0
 10
17.714138
 20
207.914416
 30
0.0
 10
17.851027
 20
207.226228
 30
0.0
 10
18.308624
 20
206.768631
 30
0.0
  0
SPLINE
  5
113
100
AcDbEntity
  8
Calque_1
 62
7
100
AcDbSpline
 70
8
 71
3
 72
8
 73
4
 74
0
 40
0
 40
0
 40
0
 40
0
 40
1
 40
1
 40
1
 40
1
 10
18.308624
 20
206.768631
 30
0.0
 10
18.766221
 20
206.311034
 30
0.0
 10
19.454409
 20
206.174145
 30
0.0
 10
20.052288
 20
206.421795
 30
0.0
  0
SPLINE
  5
114
100
AcDbEntity
  8
Calque_1
 62
7
100
AcDbSpline
 70
8
 71
3
 72
8
 73
4
 74
0
 40
0
 40
0
 40
0
 40
0
 40
1
 40
1
 40
1
 40
1
 10
20.052288
 20
206.421795
 30
0.0
 10
20.650168
 20
206.669444
 30
0.0
 10
21.039995
 20
207.252862
 30
0.0
 10
21.039995
 20
207.900002
 30
0.0
  0
SPLINE
  5
115
100
AcDbEntity
  8
Calque_1
 62
7
100
AcDbSpline
 70
8
 71
3
 72
8
 73
4
 74
0
 40
0
 40
0
 40
0
 40
0
 40
1
 40
1
 40
1
 40
1
 10
21.039995
 20
207.900002
 30
0.0
 10
21.039995
 20
208.324348
 30
0.0
 10
20.871424
 20
208.731315
 30
0.0
 10
20.571366
 20
209.031373
 30
0.0
  0
SPLINE
  5
116
100
AcDbEntity
  8
Calque_1
 62
7
100
AcDbSpline
 70
8
 71
3
 72
8
 73
4
 74
0
 40
0
 40
0
 40
0
 40
0
 40
1
 40
1
 40
1
 40
1
 10
20.571366
 20
209.031373
 30
0.0
 10
20.271308
 20
209.331431
 30
0.0
 10
19.864341
 20
209.500002
 30
0.0
 10
19.439995
 20
209.500002
 30
0.0
  0
LWPOLYLINE
  5
117
100
AcDbEntity
  8
Calque_1
 62
7
100
AcDbPolyline
 90
4
 70
1
 10
39.000000
 20
194.499170
 30
0.0
 10
39.000000
 20
173.599000
 30
0.0
 10
83.901522
 20
173.599000
 30
0.0
 10
83.901522
 20
194.502170
 30
0.0
  0
SPLINE
  5
118
100
AcDbEntity
  8
Calque_1
 62
7
100
AcDbSpline
 70
8
 71
3
 72
8
 73
4
 74
0
 40
0
 40
0
 40
0
 40
0
 40
1
 40
1
 40
1
 40
1
 10
90.509995
 20
209.514210
 30
0.0
 10
89.877330
 20
209.514210
 30
0.0
 10
89.306961
 20
209.133102
 30
0.0
 10
89.064850
 20
208.548596
 30
0.0
  0
SPLINE
  5
119
100
AcDbEntity
  8
Calque_1
 62
7
100
AcDbSpline
 70
8
 71
3
 72
8
 73
4
 74
0
 40
0
 40
0
 40
0
 40
0
 40
1
 40
1
 40
1
 40
1
 10
89.064850
 20
208.548596
 30
0.0
 10
88.822740
 20
207.964089
 30
0.0
 10
88.956567
 20
207.291293
 30
0.0
 10
89.403929
 20
206.843931
 30
0.0
  0
SPLINE
  5
11a
100
AcDbEntity
  8
Calque_1
 62
7
100
AcDbSpline
 70
8
 71
3
 72
8
 73
4
 74
0
 40
0
 40
0
 40
0
 40
0
 40
1
 40
1
 40
1
 40
1
 10
89.403929
 20
206.843931
 30
0.0
 10
89.851291
 20
206.396569
 30
0.0
 10
90.524087
 20
206.262742
 30
0.0
 10
91.108594
 20
206.504852
 30
0.0
  0
SPLINE
  5
11b
100
AcDbEntity
  8
Calque_1
 62
7
100
AcDbSpline
 70
8
 71
3
 72
8
 73
4
 74
0
 40
0
 40
0
 40
0
 40
0
 40
1
 40
1
 40
1
 40
1
 10
91.108594
 20
206.504852
 30
0.0
 10
91.693100
 20
206.746963
 30
0.0
 10
92.074208
 20
207.317332
 30
0.0
 10
92.074208
 20
207.949997
 30
0.0
  0
SPLINE
  5
11c
100
AcDbEntity
  8
Calque_1
 62
7
100
AcDbSpline
 70
8
 71
3
 72
8
 73
4
 74
0
 40
0
 40
0
 40
0
 40
0
 40
1
 40
1
 40
1
 40
1
 10
92.074208
 20
207.949997
 30
0.0
 10
92.074208
 20
208.364852
 30
0.0
 10
91.909408
 20
208.762716
 30
0.0
 10
91.616061
 20
209.056063
 30
0.0
  0
SPLINE
  5
11d
100
AcDbEntity
  8
Calque_1
 62
7
100
AcDbSpline
 70
8
 71
3
 72
8
 73
4
 74
0
 40
0
 40
0
 40
0
 40
0
 40
1
 40
1
 40
1
 40
1
 10
91.616061
 20
209.056063
 30
0.0
 10
91.322714
 20
209.349410
 30
0.0
 10
90.924850
 20
209.514210
 30
0.0
 10
90.509995
 20
209.514210
 30
0.0
  0
LWPOLYLINE
  5
11e
100
AcDbEntity
  8
Calque_1
 62
7
100
AcDbPolyline
 90
1
 70
1
 10
19.439995
 20
209.500002
 30
0.0
  0
LWPOLYLINE
  5
11f
100
AcDbEntity
  8
Calque_1
 62
7
100
AcDbPolyline
 90
1
 70
1
 10
90.509995
 20
209.514210
 30
0.0
  0
LWPOLYLINE
  5
120
100
AcDbEntity
  8
Calque_1
 62
7
100
AcDbPolyline
 90
4
 70
1
 10
13.993478
 20
164.506530
 30
0.0
 10
17.906522
 20
164.506530
 30
0.0
 10
17.906522
 20
154.593486
 30
0.0
 10
13.993478
 20
154.593486
 30
0.0
  0
LWPOLYLINE
  5
121
100
AcDbEntity
  8
Calque_1
 62
7
100
AcDbPolyline
 90
4
 70
1
 10
91.993469
 20
164.506530
 30
0.0
 10
95.906513
 20
164.506530
 30
0.0
 10
95.906513
 20
154.593485
 30
0.0
 10
91.993469
 20
154.593485
 30
0.0
  0
LWPOLYLINE
  5
122
100
AcDbEntity
  8
Calque_1
 62
7
100
AcDbPolyline
 90
4
 70
1
 10
104.210120
 20
216.813400
 30
0.0
 10
108.210120
 20
216.813400
 30
0.0
 10
108.210120
 20
151.813400
 30
0.0
 10
104.210120
 20
151.813400
 30
0.0
  0
LWPOLYLINE
  5
123
100
AcDbEntity
  8
Calque_1
 62
7
100
AcDbPolyline
 90
4
 70
1
 10
111.787060
 20
216.686859
 30
0.0
 10
115.787060
 20
216.686859
 30
0.0
 10
115.787060
 20
151.686859
 30
0.0
 10
111.787060
 20
151.686859
 30
0.0
  0
LWPOLYLINE
  5
124
100
AcDbEntity
  8
Calque_1
 62
7
100
AcDbPolyline
 90
8
 70
1
 10
25.045383
 20
152.045380
 30
0.0
 10
10.050000
 20
151.950000
 30
0.0
 10
10.050000
 20
216.949999
 30
0.0
 10
100.050000
 20
216.949999
 30
0.0
 10
100.050000
 20
151.950000
 30
0.0
 10
84.954620
 20
152.045400
 30
0.0
 10
84.954620
 20
163.954620
 30
0.0
 10
25.045383
 20
163.954620
 30
0.0
  0
ENDSEC
  0
SECTION
  2
OBJECTS
  0
DICTIONARY
  5
C
330
0
100
AcDbDictionary
  3
ACAD_GROUP
350
D
  3
ACAD_MLINESTYLE
350
17
  0
DICTIONARY
  5
D
330
C
100
AcDbDictionary
  0
DICTIONARY
  5
1A
330
C
100
AcDbDictionary
  0
DICTIONARY
  5
17
330
C
100
AcDbDictionary
  3
STANDARD
350
18
  0
DICTIONARY
  5
19
330
C
100
AcDbDictionary
  0
ENDSEC
  0
EOF
